<svg id="Layer_1" data-name="Layer 1" xmlns="http://www.w3.org/2000/svg" width="64" height="64" viewBox="0 0 64 64"><defs><style>.cls-1{fill:#1d1d1b;}</style></defs><title>alarm-clock</title><path class="cls-1" d="M14.09,18.9c.41.12,1.37-1.21,4.25-2.67A14.46,14.46,0,0,1,25.09,15c.58,0,1-.91.75-2a7,7,0,0,0-2.92-3.83,8,8,0,0,0-6.17-.71,6.46,6.46,0,0,0-4.83,5.88A4.93,4.93,0,0,0,14.09,18.9ZM13.63,13A5.28,5.28,0,0,1,18.5,9.57c2.05-.05,3.88.66,4.5,1.54s1.46,2.33.92,2.54a4.52,4.52,0,0,1-1.17.25s.42-.46.13-.79-1.38-2.71-1.67-2.59-.75.5-.5.75a10.65,10.65,0,0,1,1.46,2.55c-.12.12-2,.58-2.25.66a5.67,5.67,0,0,1-.75.17s-.79-1.58-1.17-1.58-.83.5-.66.62A11.12,11.12,0,0,1,18.13,15s-3.5,1.42-3.92,2.21C14.06,17.53,12.8,15.23,13.63,13Zm7.17.55c.2-.25-1-2.11-1.25-2.05s-.71.42-.71.59A14.19,14.19,0,0,0,20,14C20.13,14.19,20.59,13.82,20.8,13.57ZM10.38,16a3.81,3.81,0,0,0,.29-1.5,15.55,15.55,0,0,1,1.13-3.16c.25-.63-.89-.71-1.05-.54a6.69,6.69,0,0,0-1.62,5.12C9.34,16.4,10.17,16.48,10.38,16ZM25.84,8.36c.29,0,1.5-.5,3-.79s4.91-.21,10,1.54,8.17,6.5,8.37,6.71.71-.34.84-.67-.5-1.71-2.38-3.25S40.42,6.82,34.42,6.23,25.34,7,25.09,7.4,25.55,8.32,25.84,8.36ZM57.51,22.92c-1.25-3.37-5.5-4.37-8.31-3.5A6.89,6.89,0,0,0,45,23.76c.06.54,1.75,3.94,2.31,6s.66,2.81,2.38,3.53,3.34-.5,5.34-2.1A7.58,7.58,0,0,0,57.51,22.92Zm-1.75,5.25c-.18-.12-1.21-3.78-1.46-3.75s-.57.44-.5.63a41.53,41.53,0,0,1,1.4,4c-.06.28-.44.72-.56.62s-1.44-4.22-1.75-4.22-.63.38-.63.38,1.75,4.5,1.57,4.65-.88.79-1,.63-1.1-4.63-1.41-4.63-.78.35-.78.57,1.56,4.31,1.34,4.5-.94.56-1,.37-1-4.9-1.4-5-.75.09-.75.34S50.08,32,49.73,32s-.47-.59-.75-1.12S46.3,23.8,46.3,23.8a6.46,6.46,0,0,1,3.25-3.22c1.75-.6,4.5-.63,5.9,1.34s.81,2.22.81,2.22-.43-.69-.71-.63-.5.35-.47.44,1.47,1.91,1.34,2.41S56,28.3,55.76,28.17Zm-.65,7.88a21.32,21.32,0,0,1-3,.46,11.67,11.67,0,0,1-2.1-.46c-1.12.87,0,1,1.28,1.25a7,7,0,0,0,3.22-.57C55.23,36.51,55.3,36.05,55.11,36.05ZM44.48,44.89a15.88,15.88,0,0,1-1.22,2.44c-1,1.68-2.5,2.15-2.75,2.62s.19.66.69.78.88-.34,2-1.87a16.07,16.07,0,0,0,2.28-3.69C45.51,44.83,44.73,44.86,44.48,44.89ZM8.36,40.7c.12-.19-.69-2.22-.88-3.72a11.72,11.72,0,0,1,.28-3.53c.07-.28-.67-.65-.75-.59a5.73,5.73,0,0,0-.93,3.56,15.38,15.38,0,0,0,1.09,4.63C7.45,41.58,8.23,40.89,8.36,40.7ZM40.64,22.33c-3.44-3.41-10.72-5.38-16.19-5a16.15,16.15,0,0,0-11.37,5.93c-2.41,2.88-3.82,6.25-4,11.25s2.43,9.07,2.53,9.44S8,48.61,7.8,49.14s.34,1.37.56,1.66.53.12,1.94-.54,4.75-2.56,4.75-2.56S16,48.76,20.92,51a13.12,13.12,0,0,0,8.84,1c.29,0,1.29,2,2.57,4.13s1.5,2,2.28,1.44.31-1,.28-1.88,0-4.72,0-4.72a11.24,11.24,0,0,0,3.16-1.25c2.59-1.25,3.72-2.9,5.5-5.9A15,15,0,0,0,45.8,34,19,19,0,0,0,40.64,22.33ZM43,36.64c-.44,3-.65,5.25-3.69,7.81a16.57,16.57,0,0,1-10.84,4.28A18.54,18.54,0,0,1,18.2,45.89c-2.78-1.63-4.69-5.47-5.25-8.31s-1.87-12.1,6.63-16.38c2.34-1.18,5.9-1.9,11-1.09a14,14,0,0,1,10.15,6.25A14.33,14.33,0,0,1,43,36.64ZM31.17,22.2a9,9,0,0,0-.5,2.31c.09.35,2.06.41,2.31.41s.53-1.91.5-2.37S31.35,21.83,31.17,22.2Zm7.56,17.25c.13.31,1.94.69,2.16.66a9.53,9.53,0,0,0,.91-2.35c.12-.4-1.89-1.25-2-1.15A7.67,7.67,0,0,0,38.73,39.45Zm-16.31,4.1a8.65,8.65,0,0,0-.5,2.62,6.18,6.18,0,0,0,2.69,1c.37-.06,1.25-2.5,1-3.44S22.58,43.39,22.42,43.55ZM15.36,28.23c-.41.38-1,2.69-.5,3a8.06,8.06,0,0,0,2.69.6c.34,0,.81-2.63.78-3S15.59,28,15.36,28.23Zm10-1.75s.5,5.07.56,5.38.72.28,1.19.06.06-.44,0-1.28-.5-4.25-.5-4.25a3.89,3.89,0,0,0,1.12-.19c.32-.15-.62-1.65-1.06-2.34s-.84-.75-1.28-.53-.91,2.84-.91,3.06S25.36,26.48,25.36,26.48Zm5.78-.72a8.47,8.47,0,0,0-2.34,1.69c-.32.35.46.78.56.85s-1,2.52-1,2.75.53.68,1.06.65,1-2.87,1.06-3,.66.13,1,.16.22-1.44.22-2S31.64,25.7,31.14,25.76Zm-5,6.69c-1.22.19-2.47,1.35-2.34,2.38s.4,2.53,2.28,2.84,2.34-.06,3.12-.87a2.5,2.5,0,0,0,0-3.22A2.69,2.69,0,0,0,26.14,32.45Zm.91,4.19A1.74,1.74,0,0,1,25,35.05c-.12-.6.6-1.66,1.78-1.82.75-.1,1.88.78,1.79,1.63S28.61,36.42,27.05,36.64Z"/></svg>